<mxfile host="app.diagrams.net" modified="2021-01-25T16:39:40.991Z" agent="5.0 (Windows)" etag="uFpeEk1UUAxnXQdV7MCq" version="14.2.7" type="github">
  <diagram id="C5RBs43oDa-KdzZeNtuy" name="Page-1">
    <mxGraphModel dx="780" dy="762" grid="1" gridSize="10" guides="1" tooltips="1" connect="1" arrows="1" fold="1" page="1" pageScale="1" pageWidth="827" pageHeight="1169" math="0" shadow="0">
      <root>
        <mxCell id="WIyWlLk6GJQsqaUBKTNV-0" />
        <mxCell id="WIyWlLk6GJQsqaUBKTNV-1" parent="WIyWlLk6GJQsqaUBKTNV-0" />
        <mxCell id="WIyWlLk6GJQsqaUBKTNV-2" value="" style="rounded=0;html=1;jettySize=auto;orthogonalLoop=1;fontSize=11;endArrow=block;endFill=0;endSize=8;strokeWidth=1;shadow=0;labelBackgroundColor=none;edgeStyle=orthogonalEdgeStyle;" parent="WIyWlLk6GJQsqaUBKTNV-1" source="WIyWlLk6GJQsqaUBKTNV-3" target="WIyWlLk6GJQsqaUBKTNV-6" edge="1">
          <mxGeometry relative="1" as="geometry" />
        </mxCell>
        <mxCell id="WIyWlLk6GJQsqaUBKTNV-3" value="Lamp doesn&#39;t work" style="rounded=1;whiteSpace=wrap;html=1;fontSize=12;glass=0;strokeWidth=1;shadow=0;" parent="WIyWlLk6GJQsqaUBKTNV-1" vertex="1">
          <mxGeometry x="160" y="80" width="120" height="40" as="geometry" />
        </mxCell>
        <mxCell id="WIyWlLk6GJQsqaUBKTNV-4" value="Yes" style="rounded=0;html=1;jettySize=auto;orthogonalLoop=1;fontSize=11;endArrow=block;endFill=0;endSize=8;strokeWidth=1;shadow=0;labelBackgroundColor=none;edgeStyle=orthogonalEdgeStyle;" parent="WIyWlLk6GJQsqaUBKTNV-1" source="WIyWlLk6GJQsqaUBKTNV-6" target="WIyWlLk6GJQsqaUBKTNV-10" edge="1">
          <mxGeometry y="20" relative="1" as="geometry">
            <mxPoint as="offset" />
          </mxGeometry>
        </mxCell>
        <mxCell id="WIyWlLk6GJQsqaUBKTNV-5" value="No" style="edgeStyle=orthogonalEdgeStyle;rounded=0;html=1;jettySize=auto;orthogonalLoop=1;fontSize=11;endArrow=block;endFill=0;endSize=8;strokeWidth=1;shadow=0;labelBackgroundColor=none;" parent="WIyWlLk6GJQsqaUBKTNV-1" source="WIyWlLk6GJQsqaUBKTNV-6" target="WIyWlLk6GJQsqaUBKTNV-7" edge="1">
          <mxGeometry y="10" relative="1" as="geometry">
            <mxPoint as="offset" />
          </mxGeometry>
        </mxCell>
        <mxCell id="WIyWlLk6GJQsqaUBKTNV-6" value="Lamp&lt;br&gt;plugged in?" style="rhombus;whiteSpace=wrap;html=1;shadow=0;fontFamily=Helvetica;fontSize=12;align=center;strokeWidth=1;spacing=6;spacingTop=-4;" parent="WIyWlLk6GJQsqaUBKTNV-1" vertex="1">
          <mxGeometry x="170" y="170" width="100" height="80" as="geometry" />
        </mxCell>
        <mxCell id="WIyWlLk6GJQsqaUBKTNV-7" value="Plug in lamp" style="rounded=1;whiteSpace=wrap;html=1;fontSize=12;glass=0;strokeWidth=1;shadow=0;" parent="WIyWlLk6GJQsqaUBKTNV-1" vertex="1">
          <mxGeometry x="320" y="190" width="120" height="40" as="geometry" />
        </mxCell>
        <mxCell id="WIyWlLk6GJQsqaUBKTNV-8" value="No" style="rounded=0;html=1;jettySize=auto;orthogonalLoop=1;fontSize=11;endArrow=block;endFill=0;endSize=8;strokeWidth=1;shadow=0;labelBackgroundColor=none;edgeStyle=orthogonalEdgeStyle;" parent="WIyWlLk6GJQsqaUBKTNV-1" source="WIyWlLk6GJQsqaUBKTNV-10" target="WIyWlLk6GJQsqaUBKTNV-11" edge="1">
          <mxGeometry x="0.3333" y="20" relative="1" as="geometry">
            <mxPoint as="offset" />
          </mxGeometry>
        </mxCell>
        <mxCell id="WIyWlLk6GJQsqaUBKTNV-9" value="Yes" style="edgeStyle=orthogonalEdgeStyle;rounded=0;html=1;jettySize=auto;orthogonalLoop=1;fontSize=11;endArrow=block;endFill=0;endSize=8;strokeWidth=1;shadow=0;labelBackgroundColor=none;" parent="WIyWlLk6GJQsqaUBKTNV-1" source="WIyWlLk6GJQsqaUBKTNV-10" target="WIyWlLk6GJQsqaUBKTNV-12" edge="1">
          <mxGeometry y="10" relative="1" as="geometry">
            <mxPoint as="offset" />
          </mxGeometry>
        </mxCell>
        <mxCell id="WIyWlLk6GJQsqaUBKTNV-10" value="Bulb&lt;br&gt;burned out?" style="rhombus;whiteSpace=wrap;html=1;shadow=0;fontFamily=Helvetica;fontSize=12;align=center;strokeWidth=1;spacing=6;spacingTop=-4;" parent="WIyWlLk6GJQsqaUBKTNV-1" vertex="1">
          <mxGeometry x="170" y="290" width="100" height="80" as="geometry" />
        </mxCell>
        <mxCell id="WIyWlLk6GJQsqaUBKTNV-11" value="Repair Lamp" style="rounded=1;whiteSpace=wrap;html=1;fontSize=12;glass=0;strokeWidth=1;shadow=0;" parent="WIyWlLk6GJQsqaUBKTNV-1" vertex="1">
          <mxGeometry x="160" y="430" width="120" height="40" as="geometry" />
        </mxCell>
        <mxCell id="WIyWlLk6GJQsqaUBKTNV-12" value="Replace Bulb" style="rounded=1;whiteSpace=wrap;html=1;fontSize=12;glass=0;strokeWidth=1;shadow=0;" parent="WIyWlLk6GJQsqaUBKTNV-1" vertex="1">
          <mxGeometry x="320" y="310" width="120" height="40" as="geometry" />
        </mxCell>
        <mxCell id="DokXidT2fpzuQlmhk5bF-3" value="" style="edgeStyle=orthogonalEdgeStyle;rounded=0;orthogonalLoop=1;jettySize=auto;html=1;" edge="1" parent="WIyWlLk6GJQsqaUBKTNV-1" source="DokXidT2fpzuQlmhk5bF-1">
          <mxGeometry relative="1" as="geometry">
            <mxPoint x="605" y="230" as="targetPoint" />
            <Array as="points">
              <mxPoint x="600" y="230" />
            </Array>
          </mxGeometry>
        </mxCell>
        <mxCell id="DokXidT2fpzuQlmhk5bF-5" value="" style="edgeStyle=orthogonalEdgeStyle;rounded=0;orthogonalLoop=1;jettySize=auto;html=1;" edge="1" parent="WIyWlLk6GJQsqaUBKTNV-1" source="DokXidT2fpzuQlmhk5bF-1" target="DokXidT2fpzuQlmhk5bF-4">
          <mxGeometry relative="1" as="geometry" />
        </mxCell>
        <mxCell id="DokXidT2fpzuQlmhk5bF-1" value="&lt;div&gt;Should assign&lt;/div&gt;&lt;div&gt;List as type?&lt;/div&gt;" style="rhombus;whiteSpace=wrap;html=1;shadow=0;fontFamily=Helvetica;fontSize=12;align=center;strokeWidth=1;spacing=6;spacingTop=-4;" vertex="1" parent="WIyWlLk6GJQsqaUBKTNV-1">
          <mxGeometry x="535" y="45" width="140" height="110" as="geometry" />
        </mxCell>
        <mxCell id="DokXidT2fpzuQlmhk5bF-4" value="&lt;div&gt;convert&lt;/div&gt;" style="whiteSpace=wrap;html=1;shadow=0;strokeWidth=1;spacing=6;spacingTop=-4;" vertex="1" parent="WIyWlLk6GJQsqaUBKTNV-1">
          <mxGeometry x="740" y="70" width="120" height="60" as="geometry" />
        </mxCell>
        <mxCell id="DokXidT2fpzuQlmhk5bF-8" value="&lt;div&gt;Yes&lt;/div&gt;" style="text;html=1;strokeColor=none;fillColor=none;align=center;verticalAlign=middle;whiteSpace=wrap;rounded=0;" vertex="1" parent="WIyWlLk6GJQsqaUBKTNV-1">
          <mxGeometry x="670" y="70" width="40" height="20" as="geometry" />
        </mxCell>
        <mxCell id="DokXidT2fpzuQlmhk5bF-9" value="No" style="text;html=1;strokeColor=none;fillColor=none;align=center;verticalAlign=middle;whiteSpace=wrap;rounded=0;" vertex="1" parent="WIyWlLk6GJQsqaUBKTNV-1">
          <mxGeometry x="560" y="170" width="40" height="20" as="geometry" />
        </mxCell>
        <mxCell id="DokXidT2fpzuQlmhk5bF-11" value="" style="edgeStyle=orthogonalEdgeStyle;rounded=0;orthogonalLoop=1;jettySize=auto;html=1;" edge="1" parent="WIyWlLk6GJQsqaUBKTNV-1" source="DokXidT2fpzuQlmhk5bF-13" target="DokXidT2fpzuQlmhk5bF-14">
          <mxGeometry relative="1" as="geometry" />
        </mxCell>
        <mxCell id="DokXidT2fpzuQlmhk5bF-12" value="" style="edgeStyle=orthogonalEdgeStyle;rounded=0;orthogonalLoop=1;jettySize=auto;html=1;" edge="1" parent="WIyWlLk6GJQsqaUBKTNV-1" source="DokXidT2fpzuQlmhk5bF-13" target="DokXidT2fpzuQlmhk5bF-16">
          <mxGeometry relative="1" as="geometry" />
        </mxCell>
        <mxCell id="DokXidT2fpzuQlmhk5bF-13" value="&lt;div&gt;Should assign&lt;/div&gt;&lt;div&gt;List as type?&lt;/div&gt;" style="rhombus;whiteSpace=wrap;html=1;shadow=0;fontFamily=Helvetica;fontSize=12;align=center;strokeWidth=1;spacing=6;spacingTop=-4;" vertex="1" parent="WIyWlLk6GJQsqaUBKTNV-1">
          <mxGeometry x="530" y="45" width="140" height="110" as="geometry" />
        </mxCell>
        <mxCell id="DokXidT2fpzuQlmhk5bF-28" value="" style="edgeStyle=orthogonalEdgeStyle;rounded=0;orthogonalLoop=1;jettySize=auto;html=1;" edge="1" parent="WIyWlLk6GJQsqaUBKTNV-1" source="DokXidT2fpzuQlmhk5bF-14" target="DokXidT2fpzuQlmhk5bF-27">
          <mxGeometry relative="1" as="geometry" />
        </mxCell>
        <mxCell id="DokXidT2fpzuQlmhk5bF-14" value="&lt;div&gt;Should assign&lt;/div&gt;&lt;div&gt;List as type?&lt;/div&gt;&lt;div&gt;Converter == null?&lt;br&gt;&lt;/div&gt;" style="rhombus;whiteSpace=wrap;html=1;shadow=0;fontFamily=Helvetica;fontSize=12;align=center;strokeWidth=1;spacing=6;spacingTop=-4;" vertex="1" parent="WIyWlLk6GJQsqaUBKTNV-1">
          <mxGeometry x="525" y="190" width="150" height="140" as="geometry" />
        </mxCell>
        <mxCell id="DokXidT2fpzuQlmhk5bF-15" value="" style="edgeStyle=orthogonalEdgeStyle;rounded=0;orthogonalLoop=1;jettySize=auto;html=1;entryX=0.5;entryY=0;entryDx=0;entryDy=0;" edge="1" parent="WIyWlLk6GJQsqaUBKTNV-1" source="DokXidT2fpzuQlmhk5bF-16" target="DokXidT2fpzuQlmhk5bF-14">
          <mxGeometry relative="1" as="geometry">
            <mxPoint x="610" y="180" as="targetPoint" />
            <Array as="points">
              <mxPoint x="930" y="100" />
              <mxPoint x="930" y="170" />
              <mxPoint x="600" y="170" />
            </Array>
          </mxGeometry>
        </mxCell>
        <mxCell id="DokXidT2fpzuQlmhk5bF-16" value="&lt;div&gt;convert&lt;/div&gt;" style="whiteSpace=wrap;html=1;shadow=0;strokeWidth=1;spacing=6;spacingTop=-4;" vertex="1" parent="WIyWlLk6GJQsqaUBKTNV-1">
          <mxGeometry x="740" y="70" width="120" height="60" as="geometry" />
        </mxCell>
        <mxCell id="DokXidT2fpzuQlmhk5bF-17" value="&lt;div&gt;Yes&lt;/div&gt;" style="text;html=1;strokeColor=none;fillColor=none;align=center;verticalAlign=middle;whiteSpace=wrap;rounded=0;" vertex="1" parent="WIyWlLk6GJQsqaUBKTNV-1">
          <mxGeometry x="670" y="70" width="40" height="20" as="geometry" />
        </mxCell>
        <mxCell id="DokXidT2fpzuQlmhk5bF-18" value="No" style="text;html=1;strokeColor=none;fillColor=none;align=center;verticalAlign=middle;whiteSpace=wrap;rounded=0;" vertex="1" parent="WIyWlLk6GJQsqaUBKTNV-1">
          <mxGeometry x="560" y="170" width="40" height="20" as="geometry" />
        </mxCell>
        <mxCell id="DokXidT2fpzuQlmhk5bF-22" value="" style="edgeStyle=orthogonalEdgeStyle;rounded=0;orthogonalLoop=1;jettySize=auto;html=1;exitX=1;exitY=0.5;exitDx=0;exitDy=0;" edge="1" parent="WIyWlLk6GJQsqaUBKTNV-1" target="DokXidT2fpzuQlmhk5bF-24" source="DokXidT2fpzuQlmhk5bF-14">
          <mxGeometry relative="1" as="geometry">
            <mxPoint x="685" y="310" as="sourcePoint" />
          </mxGeometry>
        </mxCell>
        <mxCell id="DokXidT2fpzuQlmhk5bF-24" value="&lt;div&gt;convert&lt;/div&gt;" style="whiteSpace=wrap;html=1;shadow=0;strokeWidth=1;spacing=6;spacingTop=-4;" vertex="1" parent="WIyWlLk6GJQsqaUBKTNV-1">
          <mxGeometry x="740" y="230" width="120" height="60" as="geometry" />
        </mxCell>
        <mxCell id="DokXidT2fpzuQlmhk5bF-26" value="&lt;div&gt;Yes&lt;/div&gt;" style="text;html=1;strokeColor=none;fillColor=none;align=center;verticalAlign=middle;whiteSpace=wrap;rounded=0;" vertex="1" parent="WIyWlLk6GJQsqaUBKTNV-1">
          <mxGeometry x="675" y="270" width="40" height="20" as="geometry" />
        </mxCell>
        <mxCell id="DokXidT2fpzuQlmhk5bF-36" value="" style="edgeStyle=orthogonalEdgeStyle;rounded=0;orthogonalLoop=1;jettySize=auto;html=1;" edge="1" parent="WIyWlLk6GJQsqaUBKTNV-1" source="DokXidT2fpzuQlmhk5bF-27" target="DokXidT2fpzuQlmhk5bF-35">
          <mxGeometry relative="1" as="geometry" />
        </mxCell>
        <mxCell id="DokXidT2fpzuQlmhk5bF-29" value="No" style="text;html=1;strokeColor=none;fillColor=none;align=center;verticalAlign=middle;whiteSpace=wrap;rounded=0;" vertex="1" parent="WIyWlLk6GJQsqaUBKTNV-1">
          <mxGeometry x="550" y="340" width="40" height="20" as="geometry" />
        </mxCell>
        <mxCell id="DokXidT2fpzuQlmhk5bF-31" value="" style="edgeStyle=orthogonalEdgeStyle;rounded=0;orthogonalLoop=1;jettySize=auto;html=1;exitX=1;exitY=0.5;exitDx=0;exitDy=0;" edge="1" parent="WIyWlLk6GJQsqaUBKTNV-1" target="DokXidT2fpzuQlmhk5bF-33" source="DokXidT2fpzuQlmhk5bF-27">
          <mxGeometry relative="1" as="geometry">
            <mxPoint x="685" y="520" as="sourcePoint" />
            <Array as="points" />
          </mxGeometry>
        </mxCell>
        <mxCell id="DokXidT2fpzuQlmhk5bF-33" value="&lt;div&gt;convert&lt;/div&gt;" style="whiteSpace=wrap;html=1;shadow=0;strokeWidth=1;spacing=6;spacingTop=-4;" vertex="1" parent="WIyWlLk6GJQsqaUBKTNV-1">
          <mxGeometry x="740" y="400" width="120" height="60" as="geometry" />
        </mxCell>
        <mxCell id="DokXidT2fpzuQlmhk5bF-34" value="&lt;div&gt;Yes&lt;/div&gt;" style="text;html=1;strokeColor=none;fillColor=none;align=center;verticalAlign=middle;whiteSpace=wrap;rounded=0;" vertex="1" parent="WIyWlLk6GJQsqaUBKTNV-1">
          <mxGeometry x="680" y="400" width="40" height="20" as="geometry" />
        </mxCell>
        <mxCell id="DokXidT2fpzuQlmhk5bF-43" value="" style="edgeStyle=orthogonalEdgeStyle;rounded=0;orthogonalLoop=1;jettySize=auto;html=1;" edge="1" parent="WIyWlLk6GJQsqaUBKTNV-1" source="DokXidT2fpzuQlmhk5bF-35" target="DokXidT2fpzuQlmhk5bF-42">
          <mxGeometry relative="1" as="geometry">
            <Array as="points">
              <mxPoint x="600" y="800" />
              <mxPoint x="600" y="800" />
            </Array>
          </mxGeometry>
        </mxCell>
        <mxCell id="DokXidT2fpzuQlmhk5bF-35" value="Converter == null?" style="rhombus;whiteSpace=wrap;html=1;shadow=0;fontFamily=Helvetica;fontSize=12;align=center;strokeWidth=1;spacing=6;spacingTop=-4;" vertex="1" parent="WIyWlLk6GJQsqaUBKTNV-1">
          <mxGeometry x="525" y="540" width="150" height="120" as="geometry" />
        </mxCell>
        <mxCell id="DokXidT2fpzuQlmhk5bF-38" value="" style="edgeStyle=orthogonalEdgeStyle;rounded=0;orthogonalLoop=1;jettySize=auto;html=1;exitX=1;exitY=0.5;exitDx=0;exitDy=0;" edge="1" parent="WIyWlLk6GJQsqaUBKTNV-1" target="DokXidT2fpzuQlmhk5bF-40" source="DokXidT2fpzuQlmhk5bF-35">
          <mxGeometry relative="1" as="geometry">
            <mxPoint x="685" y="740" as="sourcePoint" />
            <Array as="points" />
          </mxGeometry>
        </mxCell>
        <mxCell id="DokXidT2fpzuQlmhk5bF-40" value="&lt;div&gt;convert&lt;/div&gt;" style="whiteSpace=wrap;html=1;shadow=0;strokeWidth=1;spacing=6;spacingTop=-4;" vertex="1" parent="WIyWlLk6GJQsqaUBKTNV-1">
          <mxGeometry x="740" y="570" width="120" height="60" as="geometry" />
        </mxCell>
        <mxCell id="DokXidT2fpzuQlmhk5bF-41" value="&lt;div&gt;Yes&lt;/div&gt;" style="text;html=1;strokeColor=none;fillColor=none;align=center;verticalAlign=middle;whiteSpace=wrap;rounded=0;" vertex="1" parent="WIyWlLk6GJQsqaUBKTNV-1">
          <mxGeometry x="690" y="565" width="40" height="20" as="geometry" />
        </mxCell>
        <mxCell id="DokXidT2fpzuQlmhk5bF-55" value="" style="edgeStyle=orthogonalEdgeStyle;rounded=0;orthogonalLoop=1;jettySize=auto;html=1;" edge="1" parent="WIyWlLk6GJQsqaUBKTNV-1" source="DokXidT2fpzuQlmhk5bF-42" target="DokXidT2fpzuQlmhk5bF-54">
          <mxGeometry relative="1" as="geometry" />
        </mxCell>
        <mxCell id="DokXidT2fpzuQlmhk5bF-42" value="Converter == null?" style="rhombus;whiteSpace=wrap;html=1;shadow=0;fontFamily=Helvetica;fontSize=12;align=center;strokeWidth=1;spacing=6;spacingTop=-4;" vertex="1" parent="WIyWlLk6GJQsqaUBKTNV-1">
          <mxGeometry x="525" y="690" width="150" height="140" as="geometry" />
        </mxCell>
        <mxCell id="DokXidT2fpzuQlmhk5bF-27" value="Converter == null?" style="rhombus;whiteSpace=wrap;html=1;shadow=0;fontFamily=Helvetica;fontSize=12;align=center;strokeWidth=1;spacing=6;spacingTop=-4;" vertex="1" parent="WIyWlLk6GJQsqaUBKTNV-1">
          <mxGeometry x="525" y="370" width="150" height="120" as="geometry" />
        </mxCell>
        <mxCell id="DokXidT2fpzuQlmhk5bF-47" value="" style="edgeStyle=orthogonalEdgeStyle;rounded=0;orthogonalLoop=1;jettySize=auto;html=1;" edge="1" parent="WIyWlLk6GJQsqaUBKTNV-1" source="DokXidT2fpzuQlmhk5bF-24" target="DokXidT2fpzuQlmhk5bF-27">
          <mxGeometry relative="1" as="geometry">
            <mxPoint x="600" y="440" as="targetPoint" />
            <Array as="points">
              <mxPoint x="930" y="260" />
              <mxPoint x="930" y="340" />
              <mxPoint x="600" y="340" />
            </Array>
            <mxPoint x="860" y="260" as="sourcePoint" />
          </mxGeometry>
        </mxCell>
        <mxCell id="DokXidT2fpzuQlmhk5bF-50" value="No" style="text;html=1;strokeColor=none;fillColor=none;align=center;verticalAlign=middle;whiteSpace=wrap;rounded=0;" vertex="1" parent="WIyWlLk6GJQsqaUBKTNV-1">
          <mxGeometry x="550" y="500" width="40" height="20" as="geometry" />
        </mxCell>
        <mxCell id="DokXidT2fpzuQlmhk5bF-52" value="" style="edgeStyle=orthogonalEdgeStyle;rounded=0;orthogonalLoop=1;jettySize=auto;html=1;" edge="1" parent="WIyWlLk6GJQsqaUBKTNV-1">
          <mxGeometry relative="1" as="geometry">
            <mxPoint x="600" y="540" as="targetPoint" />
            <Array as="points">
              <mxPoint x="930" y="430" />
              <mxPoint x="930" y="510" />
              <mxPoint x="600" y="510" />
            </Array>
            <mxPoint x="860" y="430" as="sourcePoint" />
          </mxGeometry>
        </mxCell>
        <mxCell id="DokXidT2fpzuQlmhk5bF-53" value="" style="edgeStyle=orthogonalEdgeStyle;rounded=0;orthogonalLoop=1;jettySize=auto;html=1;" edge="1" parent="WIyWlLk6GJQsqaUBKTNV-1">
          <mxGeometry relative="1" as="geometry">
            <mxPoint x="600" y="700" as="targetPoint" />
            <Array as="points">
              <mxPoint x="930" y="600" />
              <mxPoint x="930" y="680" />
              <mxPoint x="600" y="680" />
            </Array>
            <mxPoint x="860" y="600" as="sourcePoint" />
          </mxGeometry>
        </mxCell>
        <mxCell id="DokXidT2fpzuQlmhk5bF-69" value="" style="edgeStyle=orthogonalEdgeStyle;rounded=0;orthogonalLoop=1;jettySize=auto;html=1;" edge="1" parent="WIyWlLk6GJQsqaUBKTNV-1" source="DokXidT2fpzuQlmhk5bF-54">
          <mxGeometry relative="1" as="geometry">
            <mxPoint x="600" y="1090" as="targetPoint" />
            <Array as="points">
              <mxPoint x="600" y="1090" />
              <mxPoint x="600" y="1090" />
            </Array>
          </mxGeometry>
        </mxCell>
        <mxCell id="DokXidT2fpzuQlmhk5bF-54" value="Converter == null?" style="rhombus;whiteSpace=wrap;html=1;shadow=0;fontFamily=Helvetica;fontSize=12;align=center;strokeWidth=1;spacing=6;spacingTop=-4;" vertex="1" parent="WIyWlLk6GJQsqaUBKTNV-1">
          <mxGeometry x="525" y="870" width="150" height="140" as="geometry" />
        </mxCell>
        <mxCell id="DokXidT2fpzuQlmhk5bF-56" value="" style="edgeStyle=orthogonalEdgeStyle;rounded=0;orthogonalLoop=1;jettySize=auto;html=1;exitX=1;exitY=0.5;exitDx=0;exitDy=0;" edge="1" parent="WIyWlLk6GJQsqaUBKTNV-1" target="DokXidT2fpzuQlmhk5bF-57">
          <mxGeometry relative="1" as="geometry">
            <mxPoint x="675" y="765" as="sourcePoint" />
            <Array as="points">
              <mxPoint x="675" y="760" />
            </Array>
          </mxGeometry>
        </mxCell>
        <mxCell id="DokXidT2fpzuQlmhk5bF-57" value="&lt;div&gt;convert&lt;/div&gt;" style="whiteSpace=wrap;html=1;shadow=0;strokeWidth=1;spacing=6;spacingTop=-4;" vertex="1" parent="WIyWlLk6GJQsqaUBKTNV-1">
          <mxGeometry x="740" y="730" width="120" height="60" as="geometry" />
        </mxCell>
        <mxCell id="DokXidT2fpzuQlmhk5bF-58" value="&lt;div&gt;Yes&lt;/div&gt;" style="text;html=1;strokeColor=none;fillColor=none;align=center;verticalAlign=middle;whiteSpace=wrap;rounded=0;" vertex="1" parent="WIyWlLk6GJQsqaUBKTNV-1">
          <mxGeometry x="690" y="730" width="40" height="20" as="geometry" />
        </mxCell>
        <mxCell id="DokXidT2fpzuQlmhk5bF-59" value="" style="edgeStyle=orthogonalEdgeStyle;rounded=0;orthogonalLoop=1;jettySize=auto;html=1;" edge="1" parent="WIyWlLk6GJQsqaUBKTNV-1">
          <mxGeometry relative="1" as="geometry">
            <mxPoint x="600" y="870" as="targetPoint" />
            <Array as="points">
              <mxPoint x="860" y="760" />
              <mxPoint x="930" y="760" />
              <mxPoint x="930" y="850" />
              <mxPoint x="600" y="850" />
            </Array>
            <mxPoint x="860" y="770" as="sourcePoint" />
          </mxGeometry>
        </mxCell>
        <mxCell id="DokXidT2fpzuQlmhk5bF-62" style="edgeStyle=orthogonalEdgeStyle;rounded=0;orthogonalLoop=1;jettySize=auto;html=1;exitX=1;exitY=0.75;exitDx=0;exitDy=0;entryX=1;entryY=1;entryDx=0;entryDy=0;" edge="1" parent="WIyWlLk6GJQsqaUBKTNV-1" source="DokXidT2fpzuQlmhk5bF-18" target="DokXidT2fpzuQlmhk5bF-18">
          <mxGeometry relative="1" as="geometry" />
        </mxCell>
        <mxCell id="DokXidT2fpzuQlmhk5bF-63" style="edgeStyle=orthogonalEdgeStyle;rounded=0;orthogonalLoop=1;jettySize=auto;html=1;entryX=1;entryY=0;entryDx=0;entryDy=0;" edge="1" parent="WIyWlLk6GJQsqaUBKTNV-1" target="DokXidT2fpzuQlmhk5bF-18">
          <mxGeometry relative="1" as="geometry">
            <mxPoint x="610" y="170" as="sourcePoint" />
            <Array as="points">
              <mxPoint x="600" y="170" />
            </Array>
          </mxGeometry>
        </mxCell>
        <mxCell id="DokXidT2fpzuQlmhk5bF-64" value="&lt;div&gt;convert&lt;/div&gt;" style="whiteSpace=wrap;html=1;shadow=0;strokeWidth=1;spacing=6;spacingTop=-4;" vertex="1" parent="WIyWlLk6GJQsqaUBKTNV-1">
          <mxGeometry x="740" y="910" width="120" height="60" as="geometry" />
        </mxCell>
        <mxCell id="DokXidT2fpzuQlmhk5bF-65" value="&lt;div&gt;Yes&lt;/div&gt;" style="text;html=1;strokeColor=none;fillColor=none;align=center;verticalAlign=middle;whiteSpace=wrap;rounded=0;" vertex="1" parent="WIyWlLk6GJQsqaUBKTNV-1">
          <mxGeometry x="690" y="910" width="40" height="20" as="geometry" />
        </mxCell>
        <mxCell id="DokXidT2fpzuQlmhk5bF-66" value="" style="edgeStyle=orthogonalEdgeStyle;rounded=0;orthogonalLoop=1;jettySize=auto;html=1;exitX=1;exitY=0.5;exitDx=0;exitDy=0;" edge="1" parent="WIyWlLk6GJQsqaUBKTNV-1">
          <mxGeometry relative="1" as="geometry">
            <mxPoint x="675" y="942.5" as="sourcePoint" />
            <Array as="points">
              <mxPoint x="675" y="937.5" />
            </Array>
            <mxPoint x="740" y="937.5" as="targetPoint" />
          </mxGeometry>
        </mxCell>
        <mxCell id="DokXidT2fpzuQlmhk5bF-67" value="" style="edgeStyle=orthogonalEdgeStyle;rounded=0;orthogonalLoop=1;jettySize=auto;html=1;" edge="1" parent="WIyWlLk6GJQsqaUBKTNV-1">
          <mxGeometry relative="1" as="geometry">
            <mxPoint x="600" y="1090" as="targetPoint" />
            <Array as="points">
              <mxPoint x="860" y="940" />
              <mxPoint x="930" y="940" />
              <mxPoint x="930" y="1030" />
              <mxPoint x="600" y="1030" />
            </Array>
            <mxPoint x="860" y="950" as="sourcePoint" />
          </mxGeometry>
        </mxCell>
      </root>
    </mxGraphModel>
  </diagram>
</mxfile>
